<svg version="1.1" xmlns="http://www.w3.org/2000/svg" style="display: block;" viewBox="0 0 2048 2048" width="512" height="512" preserveAspectRatio="none">
<path transform="translate(0,0)" fill="rgb(0,0,0)" d="M 1749.74 289.327 C 1753.38 289.3 1757.02 289.323 1760.65 289.398 C 1787.5 289.949 1809.01 295.886 1834.04 304.852 C 1943.88 344.203 2028.26 449.863 2036.53 567.001 C 2039.31 606.485 2038.08 648.424 2038.08 688.354 L 2037.98 914.871 L 2038.01 1394.71 C 2037.95 1482.37 2039.21 1573.94 2036.99 1661.25 C 2036.92 1677.39 2036.86 1693.53 2036.54 1709.65 C 2034.82 1796.44 1987.64 1880.53 1919.15 1932.65 C 1867.54 1971.93 1804.89 1992.14 1740.14 1991.75 C 1624.11 1991.58 1508.09 1991.73 1392.07 1991.66 L 741.637 1991.78 L 436.375 1991.81 L 348.245 1991.71 C 312.789 1991.66 278.06 1992.68 243.167 1985.67 C 105.367 1957.96 10.5628 1830.06 9.81064 1693.76 L 9.70704 925.386 L 9.50726 701.488 C 9.42701 645.974 5.58825 577.993 17.041 524.497 C 44.1795 397.73 163.928 290.137 295.892 289.587 C 296.936 289.612 298.6 290.589 298.603 290.633 C 299.682 306.651 299.353 342.593 299.307 356.699 L 299.314 426.455 C 299.409 465.221 297.748 492.164 317.833 527.345 C 344.173 573.482 384.438 597.941 438.038 598.278 L 559.601 598.103 C 588.737 598.133 648.233 600.245 673.483 593.892 C 698.275 587.487 720.894 574.547 738.98 556.421 C 784.278 511.131 778.28 468.539 778.282 410.214 L 777.996 291.197 C 810.924 292.375 845.39 291.96 878.43 291.941 L 1025.41 291.885 L 1179.34 291.934 C 1207.59 291.949 1238.34 292.52 1266.4 291.659 C 1265.71 310.768 1266.56 335.002 1266.65 354.589 L 1266.47 448.51 C 1266.54 491.005 1279.05 526.762 1309.2 557.332 C 1359.51 608.358 1424.29 599.622 1489.55 599.487 L 1602.02 599.592 C 1646.61 599.448 1677.14 589.495 1709.23 557.829 C 1755.61 512.071 1749.85 459.384 1749.85 400.584 L 1749.74 289.327 z M 994.67 1720.91 L 1004.54 1710.74 C 995.248 1692.96 985.827 1664.96 977.336 1645.4 L 908.981 1489.48 C 902.895 1475.59 887.467 1435.74 880.465 1425.01 C 936.312 1424.22 992.166 1424.05 1048.02 1424.51 L 1284.31 1424.76 C 1395.91 1425.01 1510.16 1422.75 1621.45 1424.98 C 1620.35 1352.21 1622.53 1278.6 1621.62 1205.74 C 1621.47 1193.94 1621.32 1181.01 1621.8 1169.24 C 1608.52 1170.87 1575.77 1169.9 1560.77 1169.75 C 1528.55 1169.32 1496.33 1169.27 1464.12 1169.59 L 1027.05 1169.33 L 923.377 1169.91 C 913.933 1169.94 888.845 1168.8 881.717 1169.96 L 880.005 1168.91 C 878.173 1159.14 1003.16 888.529 1016.17 851.362 C 966.66 891.571 911.26 930.094 859.638 968.306 L 621.016 1147.93 C 558.781 1194.6 486.313 1246.47 426.611 1295.31 C 468.658 1328.88 516.462 1363.37 559.756 1396.3 C 647.281 1464.25 735.735 1531 825.093 1596.52 C 875.417 1633.98 924.609 1672.88 976.118 1708.78 C 982.076 1712.93 988.247 1717.55 994.67 1720.91 z"/>
<path transform="translate(0,0)" fill="rgb(247,246,246)" d="M 1004.54 1710.74 C 1008.35 1716.37 1015.23 1733.84 1019 1741.41 C 1015.14 1738.37 996.149 1723.99 994.619 1721.1 L 994.67 1720.91 L 1004.54 1710.74 z"/>
<path transform="translate(0,0)" fill="rgb(0,0,0)" d="M 1508.31 26.39 C 1537.21 25.4324 1569.83 39.2618 1590.58 59.0576 C 1605.79 73.6645 1616.31 92.4607 1620.81 113.059 C 1625.86 136.06 1623.85 198.341 1624.07 224.803 C 1624.74 307.144 1622.23 391.445 1623.89 473.765 C 1590.08 475.668 1543.45 474.334 1508.77 474.449 C 1481.65 474.099 1454.53 473.913 1427.41 473.892 C 1416.79 473.845 1405.62 473.142 1395.24 473.419 C 1395.61 399.396 1395.61 325.371 1395.23 251.348 C 1394.93 210.964 1390.86 163.907 1396.95 124.397 C 1406.05 65.3478 1452.07 32.1179 1508.31 26.39 z"/>
<path transform="translate(0,0)" fill="rgb(0,0,0)" d="M 526.454 29.4532 C 530.034 29.1556 533.625 29.0018 537.217 28.9923 C 571.572 28.965 597.12 40.6257 621.384 64.1476 C 657.659 99.3136 653.584 142.776 653.171 188.96 C 653.078 199.299 653.316 210.023 653.39 220.418 C 654.09 304.545 653.877 388.677 652.752 472.799 C 619.93 471.905 583.301 472.829 550.219 472.963 C 521.512 473.219 492.804 473.31 464.096 473.235 C 451.082 473.16 438.371 472.452 425.346 472.636 L 425.614 233.135 L 425.491 170.687 C 425.443 158.406 425.054 146.139 425.769 133.883 C 429.176 75.459 470.859 37.2139 526.454 29.4532 z"/>
</svg>