<svg version="1.1" xmlns="http://www.w3.org/2000/svg" style="display: block;" viewBox="0 0 2048 2048" width="512" height="512" preserveAspectRatio="none">
<path transform="translate(0,0)" fill="rgb(0,0,0)" d="M 262.211 0 L 1258.17 0 L 1258.42 269.965 L 1258.12 361.861 C 1258.03 396.343 1256.8 431.248 1265.08 465.001 C 1289.83 565.901 1383.16 653.231 1487.86 663.057 C 1508.59 665.003 1530.3 664.459 1551.18 664.481 L 1798.8 664.699 L 1909.06 664.401 C 1930.75 664.411 1954.55 663.991 1976.03 665.103 C 1974.79 711.852 1975.73 763.16 1975.97 810.249 L 1976.1 983.886 L 1976.26 1511.14 L 1976.02 1727.36 C 1975.93 1769.91 1979.42 1828.03 1971.11 1867.82 C 1953.57 1951.78 1876.9 2029.07 1791.4 2042.24 C 1778.93 2044.16 1757.99 2044.41 1747.4 2048 L 1710.26 2048 C 1704.82 2046.99 1687.8 2046.91 1681.62 2046.82 L 1626.15 2046.41 L 1432.39 2045.81 L 668.806 2045.96 L 411.353 2046.04 C 363.449 2045.9 313.928 2047.89 266.283 2043.54 C 241.019 2041.15 216.437 2033.99 193.835 2022.45 C 141.863 1996.08 101.597 1947.3 83.2028 1892.02 C 69.7482 1851.59 72.4786 1808.57 72.6304 1766.37 L 72.7633 1679.84 L 72.7862 1465.8 L 73.189 839.537 L 73.0511 439.22 L 72.9584 300.69 C 72.9911 238.244 68.9716 174.939 99.2386 117.762 C 128.644 62.2114 177.071 21.0282 238.683 6.02965 C 246.041 4.23838 254.227 2.55391 261.368 0.275844 L 262.211 0 z M 1255.49 77.5207 C 1257.19 66.5156 1257.29 25.5816 1253.98 15.5964 C 1253.56 38.3524 1253.54 54.8092 1255.49 77.5207 z"/>
<path transform="translate(0,0)" fill="rgb(254,254,254)" d="M 307.562 1088.39 C 319.565 1086.68 347.739 1087.56 360.734 1087.91 C 431.456 1089.83 517.615 1074.87 564.161 1142.42 C 588.576 1177.84 591.483 1225.04 582.64 1266.02 C 578.035 1287.35 559.332 1312.32 541.543 1324.4 C 552.235 1331.42 562.69 1338.31 571.466 1347.78 C 600.315 1378.91 600.491 1418.57 599.126 1458.37 C 597.938 1492.97 583.11 1522.23 557.96 1545.47 C 502.153 1590.21 442.203 1580.69 375.674 1581.75 C 356.731 1582.05 321.069 1583.97 303.368 1581.17 C 294.062 1579.73 285.286 1575.91 277.893 1570.07 C 268.332 1562.4 258.925 1547.46 258.269 1535.59 C 257.194 1516.15 257.593 1495.02 257.579 1475.5 L 257.648 1356.35 L 257.412 1206.08 C 257.447 1181.15 256.647 1154.81 258.441 1130.05 C 260.286 1104.59 283.82 1090.77 307.562 1088.39 z"/>
<path transform="translate(0,0)" fill="rgb(0,0,0)" d="M 357.745 1373.06 C 374.102 1373.48 390.464 1373.65 406.826 1373.59 C 435.287 1373.59 465.217 1370.4 487.556 1391.49 C 510.228 1412.89 511.773 1452.23 490.252 1474.74 C 468.391 1493.39 437.906 1490.13 411.022 1490.03 L 357.002 1490.09 C 357.266 1452.06 356.439 1410.67 357.745 1373.06 z"/>
<path transform="translate(0,0)" fill="rgb(0,0,0)" d="M 357.452 1178.33 C 398.233 1182.82 489.099 1159.62 493.135 1226.94 C 494.123 1243.42 489.666 1254.99 478.4 1267.18 C 453.154 1287.52 390.731 1281.29 357.768 1281.05 L 357.452 1178.33 z"/>
<path transform="translate(0,0)" fill="rgb(254,254,254)" d="M 828.321 1087.22 C 854.421 1085.25 874.63 1103.09 882.608 1126.58 C 888.425 1143.7 894.555 1161.17 900.958 1178.05 L 974.64 1370.86 C 995.423 1424.51 1019.29 1481.55 1036.6 1536.67 C 1041.55 1552.41 1023.66 1580.95 1006.68 1585.21 C 960.354 1596.85 947.628 1565.63 934.535 1531.22 L 922.377 1499.71 C 903.011 1501.93 855.034 1500.9 833.5 1500.98 C 800.69 1501.08 767.88 1501 735.071 1500.73 C 733.351 1506.27 731.293 1512.37 729.25 1517.8 C 719.79 1542.94 712.01 1577.41 682.363 1585.56 C 669.24 1589.21 655.197 1587.39 643.439 1580.51 C 628.462 1571.6 615.889 1550.9 621.891 1533.32 C 630.069 1509.36 640.287 1485.51 649.661 1461.93 L 696.773 1341.13 C 717.767 1286.03 739.463 1231.2 761.854 1176.66 C 768.699 1159.6 775.304 1142.38 782.272 1125.35 C 791.443 1102.93 804.452 1091.61 828.321 1087.22 z"/>
<path transform="translate(0,0)" fill="rgb(0,0,0)" d="M 829.541 1260.44 C 830.079 1260.75 830.617 1261.06 831.155 1261.37 C 846.584 1298.7 873.61 1372.78 887.148 1407.04 C 872.809 1405.71 848.601 1406.48 833.5 1406.55 C 816.272 1406.42 791.315 1405.5 774.684 1406.64 C 792.371 1358.23 812.899 1308.46 829.541 1260.44 z"/>
<path transform="translate(0,0)" fill="rgb(254,254,254)" d="M 1565.91 1243.13 L 1567.02 1241.92 C 1585.02 1222.38 1615.71 1195.1 1636.01 1175.42 C 1650.06 1161.86 1664.03 1148.22 1677.9 1134.49 C 1690.34 1122.15 1705.84 1105.03 1720.27 1096.33 C 1750.49 1078.11 1792.23 1104.53 1790.91 1139.23 C 1790.7 1146.21 1787.71 1159.75 1783.1 1165.3 C 1765.92 1185.95 1743.86 1204.63 1724.54 1223.47 L 1607.9 1338.24 C 1618.32 1347.02 1642.84 1373.43 1654.13 1384.61 L 1759.14 1488.67 C 1774.24 1503.25 1794.75 1520.34 1793.29 1543.45 C 1792.41 1557.32 1787.03 1567.98 1776.59 1577.13 C 1766.94 1585.65 1754.22 1589.86 1741.39 1588.77 C 1735.15 1588.23 1728.47 1586.48 1723.44 1582.68 C 1707.92 1570.98 1694.58 1555.43 1680.38 1542.01 C 1654.28 1517.36 1628.94 1492.02 1604.16 1466.07 C 1591.36 1452.68 1577.06 1439.46 1565.34 1425.2 C 1566.96 1444.3 1565.27 1461.56 1566.04 1484.35 C 1567.64 1531.93 1573.36 1602.06 1499.96 1584.22 C 1492.55 1582.41 1476.76 1565.97 1475.86 1557.84 C 1471.87 1521.73 1473.74 1483.22 1473.5 1446.54 C 1473.04 1380.36 1472.97 1314.18 1473.28 1247.99 C 1473.29 1211.1 1473.16 1174.26 1473.66 1137.37 C 1474 1111.37 1488.98 1097.59 1513.09 1091.18 C 1516.03 1090.94 1519.34 1090.66 1522.29 1090.78 C 1534.77 1091.27 1546.48 1096.91 1554.65 1106.35 C 1559.71 1112.07 1563.28 1118.95 1565.02 1126.39 C 1567.52 1137.25 1566.56 1167.55 1566.51 1179.93 C 1566.44 1200.14 1566.93 1223.14 1565.91 1243.13 z"/>
<path transform="translate(0,0)" fill="rgb(254,254,254)" d="M 1275.48 1086.42 C 1312.09 1084.3 1384.13 1094.85 1408.81 1126.92 C 1416 1136.27 1420.21 1151.6 1417.11 1163.27 C 1406.57 1202.84 1373.77 1209.91 1341.37 1190.33 C 1336.57 1187.44 1318.76 1181.88 1313.06 1180.89 C 1273.93 1174.11 1229.65 1177.44 1195.83 1199.99 C 1161.87 1222.54 1138.85 1257.8 1130.85 1297.52 C 1109.57 1403.29 1169.45 1507.57 1285.33 1503.07 C 1296.32 1502.63 1308.1 1502.54 1318.84 1500.03 C 1354.28 1491.72 1380.97 1469.24 1407.19 1510.15 C 1415.42 1526.01 1417.44 1547.61 1404.57 1561.25 C 1382.6 1584.53 1338.44 1588.96 1308.79 1591.87 C 1165.61 1605.95 1039.02 1505.91 1030.9 1359.88 C 1026.85 1290.25 1045.85 1225.61 1092.73 1172.15 C 1141.5 1116.54 1202.39 1090.75 1275.48 1086.42 z"/>
<path transform="translate(0,0)" fill="rgb(0,0,0)" fill-opacity="0.964706" d="M 1253.98 15.5964 C 1257.29 25.5816 1257.19 66.5156 1255.49 77.5207 C 1253.54 54.8092 1253.56 38.3524 1253.98 15.5964 z"/>
<path transform="translate(0,0)" fill="rgb(0,0,0)" d="M 1382.17 8.24227 C 1386.15 9.39475 1404.11 28.9374 1408.18 32.9421 C 1431.89 55.9626 1455.24 79.3478 1478.22 103.089 C 1495.67 120.968 1514.27 138.168 1532.01 155.789 C 1545.73 169.425 1559 183.63 1572.63 197.379 L 1839.18 463.061 C 1858.63 482.687 1893.46 518.106 1915.2 538.469 C 1915.25 539.135 1915.3 539.801 1915.35 540.467 C 1884.77 539.595 1850.32 539.964 1819.61 539.906 L 1606.45 539.974 C 1586.79 539.911 1567.13 540.019 1547.47 540.298 C 1530.74 540.452 1512.08 540.923 1495.64 538.361 C 1444.55 530.4 1399.68 489.604 1387.3 439.405 C 1382.26 418.993 1383.18 394.245 1383.19 373.066 L 1383.23 310.341 C 1383.31 238.539 1382.99 166.737 1382.28 94.9386 C 1382.05 67.8542 1383.47 34.3366 1382.17 8.24227 z"/>
</svg>