<svg version="1.1" xmlns="http://www.w3.org/2000/svg" style="display: block;" viewBox="0 0 2048 2048" width="512" height="512" preserveAspectRatio="none">
<path transform="translate(0,0)" fill="rgb(0,0,0)" d="M 334.222 0 L 1301.77 0 C 1308.6 4.22953 1317.19 6.34067 1323.23 11.5339 C 1329.89 17.275 1336.32 23.8965 1342.6 30.097 L 1384.43 71.9596 L 1549.28 237.912 C 1624.45 312.162 1699.15 386.888 1773.37 462.085 C 1803.39 492.452 1834.57 521.584 1863.88 552.68 C 1884.63 574.699 1880.05 601.615 1880.06 629.615 L 1880.09 699.827 L 1879.64 1021.99 L 1879.53 1580.71 L 1879.39 1777.78 C 1879.28 1810.37 1880.01 1844.6 1878.6 1877.13 C 1877.49 1903.02 1866.33 1933.56 1853.1 1956.35 C 1830.31 1995.6 1790.12 2026.8 1746.62 2040.04 C 1737.96 2042.68 1720.02 2044.66 1712.82 2048 L 339.507 2048 C 334.342 2046.26 326.798 2044.71 321.464 2043.65 C 254.012 2030.71 191.235 1976.9 175.082 1908.95 C 164.838 1865.85 168.561 1810.94 168.552 1765.9 L 168.831 1561.16 L 168.836 1024.31 L 168.954 459.177 C 168.467 396.51 168.306 333.841 168.472 271.172 C 168.431 215.922 162.392 163.847 185.388 112.099 C 206.449 64.4402 246.342 27.6568 295.55 10.5237 C 307.673 6.26096 322.749 4.82529 334.222 0 z M 1700.88 1915.94 C 1712.85 1913.61 1721.66 1910.55 1730.85 1901.86 C 1742.75 1890.6 1749.88 1875.94 1749.99 1859.31 C 1750.2 1828.87 1750.05 1798.37 1750.02 1767.9 L 1749.98 1589.3 L 1750 1024.08 L 1749.73 772.015 L 1749.75 703.229 C 1749.74 694.211 1750.15 670.989 1748.68 662.801 C 1743.22 657.996 1714.3 659.877 1705.59 659.867 L 1632.22 659.755 L 1403.27 659.455 L 1323.36 659.68 C 1309.37 659.712 1288.02 660.364 1274.71 658.656 C 1268.12 657.752 1261.69 655.94 1255.6 653.273 C 1211.07 634.157 1217.56 589.691 1217.66 549.56 L 1217.84 474.867 L 1217.81 248.05 L 1217.88 177.725 C 1217.9 164.298 1218.49 147.417 1217.12 134.376 C 1202.81 130.814 1181.79 131.588 1166.67 131.606 L 1108.53 131.751 L 927.303 131.639 L 549.588 131.617 L 423.977 131.625 C 399.078 131.638 371.373 131.062 346.787 132.361 C 312.46 139.521 299.011 160.239 298.789 194.158 C 298.446 246.684 298.863 299.204 298.888 351.732 C 298.229 449.665 298.211 547.601 298.833 645.534 L 299.357 1437.5 L 299.306 1763.08 L 299.163 1830.2 C 299.03 1862.27 294.983 1889.23 326.202 1909.54 C 336.32 1916.12 347.607 1916.48 359.254 1917.04 C 390.622 1917.36 422.204 1917.1 453.598 1917.08 L 633.84 1916.93 L 1137.56 1916.65 L 1505.96 1916.64 L 1626.36 1916.63 C 1649.34 1916.67 1678.36 1917.46 1700.88 1915.94 z M 1348.34 532.292 C 1373.86 532.809 1399.84 531.993 1425.44 531.936 L 1566.29 532.021 C 1593.13 531.983 1627.53 530.96 1653.87 532.437 C 1652.93 525.391 1637.75 512.562 1632.46 507.102 C 1611.46 485.427 1589.37 464.81 1567.97 443.525 L 1440.54 315.938 C 1430.22 305.619 1353.84 226.548 1348.6 224.245 C 1347.39 256.059 1347.89 290.749 1348.4 322.652 C 1349.52 392.082 1346.36 463.104 1348.34 532.292 z"/>
<path transform="translate(0,0)" fill="rgb(0,0,0)" d="M 809.773 963.326 C 826.908 961.91 843.702 968.207 855.251 981.036 C 869.005 996.315 880.957 1013.92 892.902 1030.66 L 936.161 1090.08 C 968.324 1133.56 1000.03 1177.37 1031.28 1221.5 C 1043.68 1238.97 1058.8 1258.21 1069.99 1275.97 C 1070.69 1252.69 1069.58 1223.61 1069.3 1200.05 C 1068.9 1162.2 1068.73 1124.34 1068.79 1086.49 C 1068.76 1061.81 1065.82 1018.05 1074.69 996.284 C 1086.88 966.343 1131.08 957.009 1159.18 971.639 C 1172.24 978.296 1182.02 989.987 1186.27 1004.02 C 1191.2 1020.69 1189.45 1098.68 1189.36 1121.3 L 1189 1274.85 L 1189.11 1390.97 C 1189.21 1412.82 1190.12 1435.46 1188.86 1457.21 C 1187.12 1487.26 1170.09 1509.37 1141.42 1517.78 C 1099.38 1525.74 1081.36 1489.84 1060.29 1460.9 L 1018.77 1404.16 C 973.863 1341.52 926.269 1274.19 879.749 1212.93 C 880.497 1230.68 880.061 1250.99 880.09 1268.98 L 880.238 1368.44 L 880.317 1430.01 C 880.347 1450.78 882.748 1479.04 869.774 1496.17 C 840.682 1534.57 768.162 1520.32 760.553 1471.03 C 755.902 1440.9 758.154 1403.78 758.295 1373.22 L 758.953 1225.47 L 759.636 1084 C 759.718 1060.32 758.959 1035.57 760.488 1011.96 C 762.206 985.426 783.639 966.664 809.773 963.326 z"/>
<path transform="translate(0,0)" fill="rgb(0,0,0)" d="M 449.757 1628.49 L 1253.51 1628.78 L 1502.79 1628.87 L 1571.74 1628.72 C 1598.42 1628.64 1629.42 1625.1 1649.89 1645.64 C 1673.77 1669.6 1671.93 1717.21 1647.88 1740.64 C 1632.95 1755.19 1617.45 1755.77 1598.25 1755.78 L 816.363 1755.63 L 565.328 1755.69 L 486.336 1755.79 C 470.144 1755.8 454.554 1755.75 438.361 1755.17 C 405.637 1754 379.973 1728.72 378.845 1695.3 C 378.092 1677.4 384.64 1659.97 396.986 1647 C 412.868 1630.18 428.397 1628.97 449.757 1628.49 z"/>
<path transform="translate(0,0)" fill="rgb(0,0,0)" d="M 1288.79 966.385 C 1299.54 966.069 1312.02 967 1322.5 966.507 C 1365.82 964.468 1373.25 990.037 1393.06 1022.31 L 1430.66 1083.02 C 1439.67 1097.76 1448.46 1113.29 1458.32 1127.39 C 1482.19 1088.96 1506.24 1048.14 1528.31 1009.23 C 1551.27 968.766 1564.34 966.786 1609.27 968.795 C 1621.36 968.705 1632.76 969.662 1643.35 976.137 C 1661.77 987.4 1666.72 1009.13 1656.79 1028.12 C 1639.45 1061.26 1616.73 1093.22 1596.7 1124.66 C 1572.73 1162.27 1550.52 1200.66 1525.59 1237.54 C 1535.33 1254.94 1552.58 1279.29 1563.9 1296.49 C 1585.34 1328.86 1606.51 1361.41 1627.39 1394.14 C 1636.87 1408.72 1660.77 1440.82 1663.58 1456.99 C 1666.12 1471 1662.97 1485.44 1654.81 1497.11 C 1644.66 1511.38 1632.79 1516.27 1616.32 1518.79 C 1600.49 1520.03 1573 1520.01 1559.33 1511.14 C 1540.97 1499.22 1526.76 1470.95 1514.83 1453.08 C 1500.19 1431.14 1486.35 1409.8 1472.41 1387.51 C 1466.68 1378.36 1461.07 1368.01 1453.93 1360.2 C 1451.4 1357.5 1440.78 1376.23 1439.42 1378.42 C 1422.27 1406.41 1404.73 1434.15 1386.81 1461.65 C 1356.77 1508.66 1359.07 1518.23 1301.09 1517.18 C 1262.65 1516.48 1233.92 1493.57 1245.57 1453.06 C 1249.44 1439.61 1272.83 1408.03 1280.48 1395.96 L 1349.39 1287.01 C 1360.39 1269.79 1372.71 1252.87 1383.07 1235.25 L 1300.21 1108.29 C 1284.03 1083.93 1267.21 1059.52 1251.43 1035.38 C 1237.43 1013.95 1242.57 980.8 1267.52 970.494 C 1275.26 967.3 1280.68 967.088 1288.79 966.385 z"/>
<path transform="translate(0,0)" fill="rgb(0,0,0)" d="M 428.207 968.242 C 449.88 966.887 470.026 971.729 484.573 989.023 C 491.461 997.372 495.877 1007.48 497.322 1018.21 C 498.97 1031.01 498.239 1060.79 498.245 1075.13 L 498.248 1181.71 L 498.194 1321.04 C 498.167 1343.22 499.112 1377.07 497.276 1398.02 L 606.498 1398.22 C 633.967 1398.1 677.844 1393.35 700.491 1408.57 C 713.861 1417.56 722.941 1431.65 725.594 1447.54 C 727.965 1462.32 723.556 1479.17 714.838 1491.26 C 704.966 1505.05 689.984 1514.3 673.24 1516.95 C 662.967 1518.47 639.465 1517.95 628.011 1517.88 L 546.5 1517.22 C 526.129 1517.06 505.756 1517.08 485.385 1517.28 C 466.638 1517.47 448.456 1517.93 429.692 1516.18 C 406.356 1514.49 380.468 1487.84 377.63 1464.83 C 375.265 1445.66 376.383 1419.36 376.383 1399.19 L 376.876 1245.5 L 376.929 1104.29 C 376.833 1078.86 376.412 1053.64 377.07 1028.2 C 377.858 997.703 398.145 973.803 428.207 968.242 z"/>
</svg>