<svg version="1.1" xmlns="http://www.w3.org/2000/svg" style="display: block;" viewBox="0 0 2048 2048" width="512" height="512" preserveAspectRatio="none">
<path transform="translate(0,0)" fill="rgb(0,0,0)" d="M 255.374 0 L 1397.69 0 C 1414.22 18.7264 1435.65 39.3647 1453.59 57.3351 L 1552.66 155.814 L 1840.08 445.002 L 1921.13 526.7 C 1930.77 536.49 1945.68 550.194 1953.86 560.28 C 1956.49 570.717 1955.4 593.909 1955.27 605.764 C 1955.04 625.178 1954.91 644.594 1954.89 664.009 L 1954.94 937.554 L 1954.71 1555.53 L 1954.75 1753.07 C 1954.8 1788.66 1955.59 1824.61 1954.53 1860.48 C 1952.43 1947.11 1881.96 2031.9 1794.41 2041.53 C 1756.19 2045.73 1709.88 2043.83 1670.85 2043.83 L 1493.23 2043.83 L 951.75 2043.82 L 498.905 2043.85 L 352.557 2043.83 C 301.569 2043.81 247.889 2049.22 201.48 2025.49 C 157.333 2002.92 122.41 1964.32 106.661 1917.08 C 91.5689 1871.82 95.819 1819.95 95.9353 1772.55 L 96.3632 1602.7 L 96.2577 1044.43 L 96.3268 467.765 L 96.1207 314.346 C 95.6997 272.88 94.3345 219.647 96.375 178.421 C 97.6365 151.281 104.62 124.715 116.869 100.463 C 139.443 54.911 175.705 24.7036 223.59 8.34069 C 233.358 5.00273 244.737 3.65865 254.512 0.305464 L 255.374 0 z M 1358.99 597.663 L 1639.02 597.787 L 1728.38 597.681 C 1747.11 597.647 1768.17 597.144 1786.63 598.251 C 1784.76 593.011 1693.12 502.276 1679.85 488.99 L 1419.38 227.638 C 1410.15 218.397 1366.48 170.286 1358.52 168.635 C 1360.65 226.7 1358.82 294.299 1358.98 353.184 L 1359.12 525.259 C 1359.05 548.81 1359.56 574.323 1358.99 597.663 z"/>
<path transform="translate(0,0)" fill="rgb(254,254,254)" d="M 819.076 993.5 C 830.667 993.247 847.837 992.313 858.603 994.408 C 872.043 1007.66 890.854 1039.52 901.301 1056.27 L 937.567 1113.14 L 1023.52 1247.9 C 1040.39 1274.05 1061.68 1304.49 1077.2 1330.85 C 1075.16 1314.32 1075.82 1289.86 1075.8 1272.6 L 1075.61 1180.73 L 1075.9 1069.07 C 1075.96 1052.11 1075.58 1034.89 1076 1017.94 C 1076.78 1007.86 1080.52 994.882 1092.66 994.388 C 1117.3 993.438 1142.11 994.051 1166.76 993.627 C 1189.71 993.232 1205.37 993.202 1205.52 1020.62 C 1205.8 1073.24 1205.54 1125.81 1205.37 1178.41 L 1205.63 1356.49 L 1205.75 1465.08 C 1205.82 1483.52 1206.09 1502.27 1205.63 1520.71 C 1205.48 1525.19 1203.2 1532.1 1199.72 1535.13 C 1188.98 1544.48 1169.69 1542.19 1156.17 1542.15 L 1105.5 1542.02 L 1078.6 1542.05 C 1063.96 1517.42 1040.55 1484.03 1024.41 1459.32 C 984.081 1398.1 944.214 1336.59 904.809 1274.78 C 890.327 1251.94 865.837 1220.02 855.137 1196.88 C 854.087 1276.84 855.132 1357.63 854.824 1437.69 L 855.043 1493.26 C 855.097 1503.76 855.575 1515.13 854.182 1525.55 C 853.078 1533.8 848.468 1537 841.788 1541.58 C 816.23 1543.03 789.649 1541.45 764 1542.08 C 756.65 1542.26 749.458 1542.23 742.199 1541.47 C 725.488 1539.73 724.186 1531.26 724.034 1516.64 C 723.902 1479.11 724.033 1441.64 724.074 1404.15 L 723.919 1218.28 L 724.048 1088.9 C 724.194 978.733 711.759 994.563 819.076 993.5 z"/>
<path transform="translate(0,0)" fill="rgb(254,254,254)" d="M 1259.35 993.318 C 1289.69 993.761 1320.03 993.905 1350.37 993.752 C 1368.31 993.703 1392.45 992.971 1409.88 994.291 C 1420.12 1003.79 1433.43 1029.2 1440.82 1042.05 L 1473.28 1098.85 C 1482.53 1115.13 1499.94 1143.49 1507.25 1159.69 C 1511.26 1148.57 1530.67 1119.23 1537.57 1106.8 C 1556.28 1073.39 1576.25 1040.71 1595.42 1007.57 C 1600.68 998.49 1604.85 994.805 1615.37 994.235 C 1632.06 993.329 1648.81 993.735 1665.52 993.792 L 1755.06 993.94 C 1728.43 1030.17 1705.93 1069.11 1681.02 1106.28 C 1648.96 1154.1 1619.24 1203.49 1587.59 1251.42 C 1598.31 1265.53 1614.09 1292.85 1624.19 1308.54 C 1649.58 1347.24 1674.77 1386.09 1699.74 1425.06 L 1750.61 1501.78 C 1757.44 1512.08 1770.74 1530.65 1775.54 1540.99 C 1764.14 1542.83 1742.49 1542.2 1730.45 1542.17 C 1707.07 1542.06 1649.48 1544.08 1625.61 1540.21 C 1618.72 1539.09 1597.94 1501.91 1591.91 1492.2 C 1575.59 1466.09 1559.45 1439.86 1543.49 1413.52 C 1537.04 1402.66 1530.42 1391.91 1523.61 1381.27 C 1517.62 1372.05 1509.82 1361.01 1504.9 1351.6 C 1473.23 1394.73 1447.01 1443.64 1417.22 1488.31 C 1406.23 1504.79 1394.97 1525.54 1382.66 1540.71 C 1361.22 1547.03 1320.73 1541.95 1297.56 1543.34 C 1284.3 1544.14 1267.94 1542.71 1254.5 1542.89 C 1241.97 1543.04 1235.06 1537.65 1243.02 1525.8 C 1249.77 1514.75 1256.85 1504.17 1263.9 1493.44 L 1308.74 1426.11 L 1423.49 1251.61 C 1404.61 1225.23 1383.37 1189.56 1365.97 1161.63 L 1296.73 1052.4 C 1290.89 1043.16 1260.97 999.332 1259.35 993.318 z"/>
<path transform="translate(0,0)" fill="rgb(254,254,254)" d="M 315.196 994.108 C 315.993 994.073 316.79 994.044 317.588 994.021 C 340.922 993.436 364.504 994.078 387.828 993.68 C 404.052 993.404 425.528 993.128 427.283 1014.38 C 428.561 1029.85 428.091 1045.85 428.105 1061.41 L 428.19 1145.97 L 428.042 1433.55 C 500.082 1435.15 572.662 1432.7 644.742 1434.1 C 649.186 1434.18 654.223 1435.25 658.321 1436.89 C 662.606 1440.84 662.581 1449.62 662.313 1455.25 C 660.971 1478.59 664.04 1502.56 662.346 1525.79 C 661.385 1538.96 653.569 1541.36 642.856 1541.87 L 424.126 1541.94 C 405.195 1541.95 327.686 1544.41 315.019 1540.09 C 306.386 1537.14 299.184 1530.12 295.421 1521.84 C 293.737 1518.13 293.91 1513.26 293.831 1509.24 C 292.988 1466.43 292.163 1018.89 295.143 1011.79 C 299.119 1002.31 306.107 997.922 315.196 994.108 z"/>
</svg>