<svg version="1.1" xmlns="http://www.w3.org/2000/svg" style="display: block;" viewBox="0 0 2048 2048" width="512" height="512" preserveAspectRatio="none">
<path transform="translate(0,0)" fill="rgb(0,0,0)" d="M 341.018 0 L 1260.96 0 C 1265.59 3.0236 1269.71 3.74855 1274.61 5.9244 C 1289.79 12.6541 1301.29 26.625 1313.05 38.3462 L 1357.94 83.0745 L 1510.82 235.543 C 1587.95 311.667 1664.55 388.33 1740.6 465.526 L 1821.36 546.884 C 1873.68 600.531 1868.51 592.952 1868.31 668.327 L 1867.92 758.317 L 1867.86 1021.94 L 1868.33 1612.06 C 1867.95 1663.85 1867.88 1715.64 1868.13 1767.42 C 1868.19 1788.23 1868.11 1809.03 1867.92 1829.83 C 1867.86 1842.1 1868.4 1855.25 1867.41 1867.5 C 1860.99 1947.4 1802.8 2016.05 1727.33 2040.48 C 1718.81 2043.24 1704.17 2044.12 1696.83 2048 L 346.215 2048 C 342.083 2045.8 316.725 2040.07 309.694 2037.58 C 261.735 2020.64 222.709 1983.54 200.109 1938.55 C 186.776 1912.01 179.241 1874.19 178.664 1844.29 C 177.926 1805.99 178.754 1766.23 178.649 1727.77 L 179.871 1440.75 L 180.129 936.139 L 179.678 434.141 C 179.731 372.012 176.651 309.466 178.75 247.346 C 180.238 209.871 176.808 170.022 188.98 134.113 C 212.75 63.9914 268.107 16.3307 339.724 0.706556 C 340.155 0.471037 340.587 0.235519 341.018 0 z"/>
<path transform="translate(0,0)" fill="rgb(255,255,255)" d="M 370.885 121.417 C 392.613 120.239 425.703 121.287 448.408 121.342 C 505.094 121.786 561.781 121.945 618.468 121.82 L 942.431 121.527 C 1023.3 121.194 1104.17 121.348 1185.04 121.988 C 1187.55 238.426 1183.79 357.239 1185.35 473.976 C 1186.09 529.402 1201.96 576.889 1242.89 616.314 C 1267.93 640.762 1299.21 657.859 1333.31 665.739 C 1362.48 672.515 1391.72 670.979 1421.54 670.949 L 1502.11 670.983 C 1581.93 671.155 1667.17 672.929 1746.68 671.387 L 1746.44 1472.47 L 1746.65 1728.68 L 1746.5 1811.17 C 1746.45 1825.29 1746.86 1844.93 1745.74 1858.66 C 1744.81 1871.55 1740.43 1883.95 1733.07 1894.57 C 1721.64 1911.37 1705.03 1921.83 1685.24 1925.74 L 1684.22 1925.86 C 1666.82 1927.78 1636.7 1926.77 1618.31 1926.74 L 1508.02 1926.78 L 1127.74 1926.56 L 623.13 1926.54 L 459.942 1926.64 C 431.404 1926.66 402.216 1927.14 373.727 1926.3 C 356.944 1925.8 343.604 1919.94 330.569 1909.78 C 316.01 1898.44 304.576 1875.35 303.646 1856.91 C 302.331 1830.83 302.895 1801.95 302.904 1775.43 L 303.093 1620.71 L 303.211 1149.1 L 303.189 505.635 L 303.1 296.647 C 303.08 260.69 302.863 224.452 303.44 188.686 C 304.37 165.31 315.428 144.45 335.355 131.89 C 347.187 124.432 357.391 122.51 370.885 121.417 z"/>
<path transform="translate(0,0)" fill="rgb(0,0,0)" d="M 1078.86 1317.1 C 1078.44 1253.73 1078.41 1190.36 1078.76 1127 L 1078.33 1061.22 C 1078.24 1047.87 1077.98 1034.15 1078.76 1020.85 C 1079.51 1008.08 1095.29 988.884 1108.35 987.478 C 1127.88 985.376 1153.44 983.393 1170.49 995.008 C 1178.58 1000.52 1184.68 1010.84 1186.43 1020.7 C 1187.58 1038.35 1187.04 1057.6 1187.04 1075.37 L 1187.06 1196.95 L 1187.2 1405.19 L 1187.29 1473.81 C 1187.31 1510.47 1194.01 1549 1146.24 1557.74 C 1089.43 1563.99 1085.29 1541.34 1059.38 1498.11 C 1042.68 1470.75 1026.31 1443.18 1010.27 1415.42 C 973.645 1352.53 935.217 1290.6 898.695 1227.55 C 900.384 1247.3 899.967 1273.24 899.987 1293.45 L 900.057 1392.32 L 900.153 1469.94 C 900.166 1500.48 906.304 1547.59 865.548 1556.38 C 837.109 1562.51 796.541 1552.92 792.934 1518.92 C 790.832 1499.11 792.016 1473.84 792.062 1453.36 L 792.749 1317.27 L 792.908 1124.99 C 792.9 1092.9 792.613 1060.84 793.246 1028.76 C 793.726 1004.44 810.572 989.122 834.14 986.365 C 888.887 984.994 887.655 996.675 912.477 1040.35 C 923 1058.61 933.73 1076.74 944.665 1094.76 C 966.233 1130.22 987.367 1166 1008.65 1201.66 C 1031.05 1239.17 1057.86 1279.3 1078.86 1317.1 z"/>
<path transform="translate(0,0)" fill="rgb(0,0,0)" d="M 1283.29 986.489 C 1301.93 986.399 1324.12 984.79 1341.82 990.54 C 1354.75 994.947 1365.3 1013.98 1370.89 1025.76 C 1392.64 1071.57 1422.3 1116.34 1443.95 1161.77 C 1448.41 1152.35 1456.31 1139.3 1461.54 1129.67 C 1471.93 1110.1 1482.44 1090.59 1493.06 1071.14 C 1504.84 1049.48 1518.97 1020.82 1532.92 1000.67 C 1538.52 992.582 1556.19 986.347 1566.39 986.718 C 1589.62 987.453 1614.06 981.366 1632.55 999.083 C 1658.56 1024.01 1629.62 1059.52 1615.42 1084.27 L 1559.75 1182.27 C 1545.5 1206.79 1531.04 1231.24 1517.36 1256.07 C 1511.87 1266.02 1511.49 1269.85 1516.97 1279.58 C 1527.43 1298.17 1538.5 1316.4 1549.12 1334.92 C 1570.01 1371.66 1591.08 1408.29 1612.35 1444.82 C 1623.15 1463.08 1634.95 1481.16 1644.61 1500.04 C 1652.4 1515.28 1650.27 1535.37 1637.79 1547.56 C 1624.8 1560.24 1609.17 1559.28 1592.55 1559.25 C 1578.42 1559.3 1550.94 1560.25 1537.92 1558.56 C 1529.01 1548.78 1504.58 1499.5 1497.16 1484.81 C 1479.28 1449.45 1456.62 1410.26 1440.08 1374.61 C 1411.86 1432.4 1379.2 1492.78 1349.26 1549.68 C 1341.26 1564.9 1282.77 1557.37 1265.62 1557.3 C 1247.66 1557.22 1233.12 1527.83 1237.76 1511.07 C 1249.57 1478.46 1271.23 1445.29 1288.89 1414.61 L 1344.66 1317.59 C 1351.37 1305.89 1365.75 1282.67 1368.84 1271.1 C 1370.98 1263.12 1342.2 1216.59 1337.71 1208.76 C 1317.56 1173.37 1297.12 1138.15 1276.41 1103.09 C 1260.41 1075.65 1220.98 1026.64 1247.82 999.349 C 1259.01 987.975 1268.54 986.767 1283.29 986.489 z"/>
<path transform="translate(0,0)" fill="rgb(0,0,0)" d="M 464.039 987.451 C 490.98 987.151 521.757 987.929 528.621 1024.59 C 530.9 1036.77 529.506 1056.92 529.507 1069.69 L 529.308 1151.74 L 529.242 1325.39 C 529.179 1365.37 528.45 1407.91 529.535 1447.7 C 577.846 1446.45 627.932 1448.59 675.531 1447.77 C 729.053 1446.86 739.545 1456.51 738.291 1510.29 C 737.341 1551.03 722.186 1558.62 684.467 1558.77 C 635.036 1558.29 585.603 1558.14 536.17 1558.32 C 509.591 1558.46 481.685 1560.05 455.407 1557.25 C 434.235 1555 413.574 1531.39 413.086 1510.21 C 412.466 1483.29 412.445 1456.3 412.34 1429.37 L 412.54 1251.87 L 412.684 1105.02 C 412.703 1079.84 412.034 1054.31 413.306 1029.2 C 414.892 997.897 436.062 988.429 464.039 987.451 z"/>
<path transform="translate(0,0)" fill="rgb(255,255,255)" d="M 1308 209.527 C 1311.97 211.953 1327.88 228.189 1332.5 232.61 C 1379.26 277.372 1424.39 324 1470.4 369.602 L 1588.49 486.906 C 1604.53 502.735 1621.1 518.12 1636.42 534.621 C 1640.76 539.286 1646.83 544.886 1650.45 549.795 C 1645.74 549.998 1641.02 550.071 1636.3 550.084 C 1580.04 550.24 1523.74 550.063 1467.47 550.042 L 1408.87 550.142 C 1396.19 550.166 1378.78 550.74 1366.82 548.545 C 1353.47 546.231 1341.1 540.019 1331.27 530.69 C 1318.04 518.335 1309.86 502.321 1309.02 484.099 C 1307.67 454.944 1308.57 425.633 1308.8 396.448 C 1308.95 360.657 1308.93 324.865 1308.73 289.074 C 1308.67 262.545 1309.09 236.012 1308 209.527 z"/>
</svg>