<svg version="1.1" xmlns="http://www.w3.org/2000/svg" style="display: block;" viewBox="0 0 2048 2048" width="512" height="512" preserveAspectRatio="none">
<path transform="translate(0,0)" fill="rgb(0,0,0)" d="M 1964.97 688.283 C 1963.76 700.437 1964.24 718.518 1964.24 731.169 L 1964.3 802.24 L 1964.82 1028.41 L 1965.52 1698.48 C 1965.73 1727.35 1965.01 1756.61 1965.13 1785.55 C 1965.38 1843.77 1968.12 1884.32 1937.3 1936.81 C 1927.65 1953.59 1915.85 1969.04 1902.21 1982.77 C 1875.27 2009.86 1836.82 2032.11 1798.89 2038.72 C 1784.69 2041.19 1761.18 2041.83 1746.65 2041.89 L 705.734 2041.95 L 405.692 2041.79 L 317.937 2041.27 C 297.917 2041.08 275.215 2041.52 255.526 2038.66 C 171.833 2026.31 100.43 1954.19 87.7681 1870.77 C 83.7661 1844.4 84.9136 1819.74 84.9072 1793.28 L 84.6203 1703.22 L 84.6605 1400.41 L 84.7415 234.568 C 84.7514 219.59 84.6588 205.455 86.0981 190.6 C 94.5633 98.1757 162.873 22.4689 255.002 7.81676 C 288.091 2.55432 332.121 4.71158 366.305 4.63974 L 568.816 4.69707 L 1247.27 4.45957 C 1246.26 29.0251 1247 57.3944 1247 82.2769 L 1246.78 232.646 C 1241.26 242.226 1245.2 279.99 1244.77 292.813 C 1243.14 341.354 1242.04 389.971 1244.08 438.514 L 1244.85 439.779 C 1245.21 435.888 1244.68 429.055 1246.03 426.464 L 1246.58 426.445 C 1247.14 493.205 1273.21 557.225 1319.46 605.377 C 1353.37 640.009 1395.44 666.559 1442.58 679.074 C 1479.53 688.882 1519.37 687.791 1557.46 687.826 L 1644.75 687.882 L 1964.97 688.283 z"/>
<path transform="translate(0,0)" fill="rgb(254,254,254)" d="M 781.684 1001.32 C 794.944 999.841 825.162 1001.26 841.063 1000.85 C 868.202 1041.34 895.393 1086.17 921.68 1127.55 C 978.015 1216.93 1035.25 1305.74 1093.37 1393.96 C 1091.56 1352.3 1093.5 1301.08 1093.56 1258.2 L 1093.04 1001.04 C 1111.9 1001.3 1134.96 1001.46 1153.62 1000.81 C 1214.39 998.668 1209.48 1035.5 1209.45 1082.57 C 1209.41 1108.87 1209.5 1135.17 1209.75 1161.47 L 1209.43 1448.34 L 1209.29 1532.47 C 1209.25 1550.03 1210 1573.36 1207.24 1590.15 C 1205.56 1600.56 1200.6 1610.15 1193.09 1617.54 C 1176.67 1633.42 1155.61 1633.2 1134.57 1633.08 C 1113.9 1632.51 1103.69 1624.84 1091.76 1608.26 C 1077.13 1587.93 1064.1 1566.2 1050.63 1545.04 L 982.967 1440.12 L 895.233 1303.06 C 880.94 1280.82 852.444 1238.86 841.69 1216.57 C 843.563 1236.62 842.774 1265.48 842.828 1286.44 C 842.999 1330.64 842.947 1374.84 842.672 1419.04 L 842.656 1545.76 C 842.634 1565.18 842.949 1584.72 842.546 1604.1 C 841.973 1619.66 830.113 1629.91 815.323 1631.87 C 712.732 1645.48 726.094 1584.74 726.077 1510.51 L 726.074 1365.8 L 726.185 1161.6 L 726.024 1095.47 C 725.956 1070.69 721.747 1040.85 740.157 1022.24 C 752.544 1009.72 764.4 1003.77 781.684 1001.32 z"/>
<path transform="translate(0,0)" fill="rgb(254,254,254)" d="M 1632.06 1001.09 C 1649.04 1001.65 1738.22 998.115 1748.07 1003.13 C 1754.25 1006.27 1756.41 1012.75 1758.48 1018.87 C 1754.7 1031.43 1735.3 1059.97 1727.32 1073.2 L 1677.9 1156.39 L 1626.13 1244.14 C 1617.07 1259.57 1601.41 1291.7 1587.25 1300.84 C 1599.65 1317.16 1609 1337.68 1619.69 1354.85 C 1635.5 1380.25 1649.94 1405.95 1665.07 1431.56 L 1735.42 1551.53 C 1745.22 1568.35 1762.36 1595.21 1769.92 1611.87 C 1759.22 1637.94 1743.82 1633 1719.76 1632.2 C 1619.98 1630.78 1646.37 1648.07 1596.21 1561.23 C 1566.73 1510.38 1538.18 1458.99 1510.58 1407.09 C 1496.2 1430.3 1480.63 1459.54 1467.42 1483.55 L 1418.61 1571.16 C 1409.63 1587.35 1401.22 1603.84 1391.96 1619.87 C 1386.24 1629.77 1382.63 1633.08 1370.52 1633.23 C 1346 1633.53 1321.5 1632.32 1296.98 1633.11 C 1290.15 1633.9 1282.38 1632.72 1275.71 1633.21 C 1265.15 1633.99 1249.41 1622.41 1254.73 1611.28 C 1257.59 1605.29 1264.6 1595.25 1268.41 1589.01 C 1278.67 1572.31 1288.7 1555.48 1298.5 1538.51 C 1344.87 1458.45 1392.55 1379.97 1438.54 1299.41 C 1431.64 1292.41 1427.66 1287.4 1422.73 1278.64 C 1388.31 1217.51 1353.12 1156.85 1318.05 1096.1 C 1310.42 1082.77 1302.61 1069.55 1294.6 1056.45 C 1283.23 1037.69 1261.18 1012.04 1293.27 1001.28 C 1323.41 999.971 1368.21 1000.51 1398.66 1001.21 C 1428.25 1050.43 1455.11 1101.81 1484.56 1151.19 C 1494.81 1168.37 1508.72 1190.56 1516.73 1208.64 C 1518.77 1204.02 1521.2 1199.92 1523.56 1195.49 C 1541.65 1161.45 1561.74 1128.49 1580.24 1094.69 C 1597.39 1063.36 1614.3 1032.08 1632.06 1001.09 z"/>
<path transform="translate(0,0)" fill="rgb(254,254,254)" d="M 329.94 1002.25 C 344.623 1000.78 393.739 1001.38 408.976 1002.48 C 410.679 1017.88 409.948 1046.86 409.972 1063.18 L 410.019 1172.59 L 409.942 1525.92 L 550.624 1525.94 C 574.2 1525.95 624.85 1522.37 643.557 1533.55 C 655.653 1540.92 664.315 1552.8 667.626 1566.56 C 675.077 1598.01 653.231 1624.98 622.824 1631.7 C 610.896 1633.8 580.571 1633.08 567.217 1633.03 L 465.493 1632.57 L 390.151 1632.72 C 376.858 1632.77 356.202 1633.42 343.508 1632.01 C 333.218 1630.85 323.306 1627.45 314.469 1622.05 C 274.317 1597.64 282.024 1559.83 282.018 1519 L 282.057 1396.3 L 282.291 1181.52 C 282.252 1140.4 281.905 1099.42 283.002 1058.31 C 283.735 1030.82 302.962 1007.71 329.94 1002.25 z"/>
<path transform="translate(0,0)" fill="rgb(0,0,0)" d="M 1402.08 17.7838 C 1403.67 18.8693 1417.94 33.8437 1420.59 36.3726 C 1457.58 71.6145 1493.28 108.899 1529.46 145.072 C 1625.49 239.386 1720.44 334.79 1814.29 431.266 C 1826.66 443.803 1907.75 521.756 1909.58 529.052 L 1908.04 530.024 C 1894.8 528.605 1877.56 529.436 1864.03 529.627 C 1846.1 529.811 1828.16 529.859 1810.22 529.77 C 1733.14 529.354 1656.04 529.383 1578.96 529.858 C 1551.06 529.792 1523.33 530.132 1495.44 528.827 C 1460.75 527.204 1434.38 506.471 1415.9 478.197 C 1399.35 452.884 1401.1 421.042 1401.14 392.127 L 1401.26 330.023 L 1401.3 141.531 L 1401.5 53.4747 C 1401.52 46.5288 1400.77 23.3994 1402.08 17.7838 z"/>
<path transform="translate(0,0)" fill="rgb(0,0,0)" fill-opacity="0.988235" d="M 1246.58 426.445 L 1246.03 426.464 C 1244.68 429.055 1245.21 435.888 1244.85 439.779 L 1244.08 438.514 C 1242.04 389.971 1243.14 341.354 1244.77 292.813 C 1245.2 279.99 1241.26 242.226 1246.78 232.646 L 1246.58 426.445 z"/>
</svg>