<svg version="1.1" xmlns="http://www.w3.org/2000/svg" style="display: block;" viewBox="0 0 2048 2048" width="512" height="512" preserveAspectRatio="none">
<path transform="translate(0,0)" fill="rgb(0,0,0)" d="M 315.357 0 L 1335.78 0 C 1337.58 45.388 1336.39 97.8214 1336.33 143.564 L 1336.43 371.555 L 1336.42 451.271 C 1336.36 512.718 1336.99 566.81 1383.69 614.114 C 1405.9 636.608 1435.34 654.737 1466.5 661.255 C 1492.96 666.791 1521.25 665.373 1548.28 665.335 L 1632.35 665.207 L 1956.1 665.644 C 1955.14 677.598 1955.68 691.585 1955.67 703.748 L 1955.63 767.924 L 1955.96 975.256 L 1956.08 1568.29 L 1955.91 1748.13 C 1955.69 1819.81 1961.62 1878.19 1919.88 1941.42 C 1887.58 1990.36 1838.92 2027.14 1781.27 2040.25 C 1752.56 2046.78 1711.02 2044.87 1681.37 2045.03 C 1627.91 2045.43 1574.45 2045.24 1520.99 2044.44 C 1489.74 2044.1 1458.09 2044.81 1426.8 2044.78 L 1159.32 2044.57 L 574.626 2044.81 L 393.564 2044.56 C 322.639 2044.66 256.879 2053.85 194.725 2011.53 C 145.371 1977.92 110.127 1928.11 97.5417 1869.3 C 90.5746 1836.74 92.6828 1801.28 92.8008 1768.13 L 93.0051 1659.6 L 93.0951 1242.52 L 92.8496 533.265 L 92.7578 321.315 L 92.6984 254.265 C 92.6954 240.616 92.3586 223.477 93.4986 210.025 C 96.6218 170.037 110.096 131.549 132.596 98.3441 C 162.834 53.1617 209.513 18.5018 262.898 6.38335 C 280.356 2.42021 298.371 3.65747 315.357 0 z"/>
<path transform="translate(0,0)" fill="rgb(254,254,254)" d="M 1317.98 881.637 C 1482.56 867.475 1627.53 989.231 1642.03 1153.78 C 1656.52 1318.34 1535.05 1463.56 1370.53 1478.38 C 1205.54 1493.24 1059.82 1371.36 1045.28 1206.34 C 1030.75 1041.32 1152.93 895.839 1317.98 881.637 z"/>
<path transform="translate(0,0)" fill="rgb(0,0,0)" d="M 1326.74 1017.38 C 1327.04 1017.32 1327.34 1017.26 1327.64 1017.2 C 1368.93 1013.29 1407.93 1024.21 1440.22 1050.6 C 1507.34 1105.44 1511.67 1225.58 1457.09 1290.24 C 1433.12 1318.59 1398.99 1336.4 1362.03 1339.85 C 1360.84 1340.07 1359.65 1340.25 1358.45 1340.4 C 1321.81 1344.86 1278.67 1334.76 1249.37 1311.65 C 1225.28 1292.28 1204.55 1261.16 1197.47 1230.89 C 1174.12 1131.14 1218.43 1030.55 1326.74 1017.38 z"/>
<path transform="translate(0,0)" fill="rgb(254,254,254)" d="M 692.384 883.417 C 755.892 879.063 833.401 892.799 884.775 931.423 C 929.916 964.872 959.622 1015.15 967.143 1070.82 C 916.108 1072.1 865.244 1071.74 814.431 1072.97 C 811.984 1068.95 809.452 1064.99 806.837 1061.09 C 789.882 1035.85 766.497 1019.22 736.537 1014.01 C 699.976 1007.22 659.613 1012.38 628.204 1033.41 C 551.208 1084.94 547.388 1223.33 593.507 1295.53 C 632.73 1356.94 741.65 1364.73 798.06 1323.99 C 819.329 1308.62 825.782 1291.78 829.881 1266.68 C 818.053 1267.33 798.379 1266.53 785.995 1266.48 L 699.986 1266.05 L 699.902 1140.96 C 745.54 1140.24 793.625 1141.02 839.5 1140.98 C 884.281 1140.9 930.471 1141.47 975.119 1140.22 C 973.901 1248.7 974.873 1360.07 975.005 1468.7 C 933.683 1468.26 892.357 1468.41 851.039 1469.14 C 851.076 1453.38 851.031 1433.61 852.174 1418.12 C 841.263 1425.27 831.688 1432.78 820.141 1439.82 C 788.616 1458.86 753.033 1470.18 716.299 1472.84 C 642.235 1477.75 558.05 1452.74 501.609 1404.27 C 380.781 1300.5 379.287 1092.33 482.727 976.258 C 521.244 933.037 577.634 901.823 634.392 889.972 C 653.302 886.023 673.119 884.584 692.384 883.417 z"/>
<path transform="translate(0,0)" fill="rgb(0,0,0)" d="M 1494.07 9.86936 C 1502.06 17.3457 1510.92 28.7903 1518.33 37.2698 L 1574.26 101.544 C 1579.6 107.552 1585.23 113.681 1590.82 119.464 C 1618.6 148.183 1643.52 179.365 1669.98 209.165 L 1768.39 318.132 C 1784.89 336.614 1800.19 355.624 1816.52 374.12 C 1849.59 411.572 1883.01 448.536 1915.33 486.674 C 1920.5 492.766 1930.19 503.966 1935.78 510.631 C 1935.79 511.426 1935.8 512.221 1935.81 513.017 C 1918.6 512.149 1897.89 512.82 1880.5 512.91 L 1789.99 512.953 L 1493.56 512.501 C 1494.74 478.79 1493.05 434.935 1493.03 400.297 C 1492.38 297.67 1492.57 195.039 1493.6 92.415 C 1493.78 75.5606 1493.74 58.7046 1493.49 41.8512 C 1493.4 34.8241 1492.62 15.735 1494.07 9.86936 z"/>
</svg>