<svg version="1.1" xmlns="http://www.w3.org/2000/svg" style="display: block;" viewBox="0 0 2048 619" width="847" height="256" preserveAspectRatio="none">
<path transform="translate(0,0)" fill="rgb(253,253,253)" d="M 0 0 L 526.51 0 L 912.857 0 L 921.079 0 L 1202.87 0 L 1315.12 0 L 1692.93 0 L 1705.94 0 L 2048 0 L 2048 1.3475 L 2048 616.858 L 2048 619 L 1667 619 L 1656.09 619 L 1314.06 619 L 1300.57 619 L 919.008 619 L 913.081 619 L 526.973 619 L 520.526 619 L 0 619 L 0 426.074 L 0 393.48 L 0 2.65213 L 0 0 z"/>
<path transform="translate(0,0)" fill="rgb(253,253,253)" d="M 0 0 L 526.51 0 L 526.973 619 L 520.526 619 L 0 619 L 0 426.074 L 0 393.48 L 0 2.65213 L 0 0 z"/>
<path transform="translate(0,0)" fill="rgb(253,253,253)" d="M 0 426.074 C 69.1094 428.351 143.26 426.924 212.89 426.889 L 520.042 426.304 L 520.088 549.702 C 520.088 570.827 519.306 598.308 520.526 619 L 0 619 L 0 426.074 z"/>
<path transform="translate(0,0)" fill="rgb(0,0,0)" d="M 0 0 L 526.51 0 L 526.973 619 L 520.526 619 C 519.306 598.308 520.088 570.827 520.088 549.702 L 520.042 426.304 L 212.89 426.889 C 143.26 426.924 69.1094 428.351 0 426.074 L 0 393.48 C 1.46626 400.893 1.63703 411.345 1.98064 419.09 C 32.6246 420.608 74.2086 419.555 105.596 419.546 L 302.617 419.696 C 304.569 366.817 303.412 305.226 303.47 251.869 L 304.092 2.03653 C 281.534 3.70044 246.092 2.41514 222.545 2.3785 L 78.8079 2.46746 C 53.4732 2.47704 25.0147 1.60953 0 2.65213 L 0 0 z"/>
<path transform="translate(0,0)" fill="rgb(253,253,253)" d="M 526.51 0 L 912.857 0 L 921.079 0 C 919.874 59.5924 920.757 120.977 920.588 180.712 L 919.008 619 L 913.081 619 L 526.973 619 L 526.51 0 z"/>
<path transform="translate(0,0)" fill="rgb(0,0,0)" d="M 912.857 0 L 921.079 0 C 919.874 59.5924 920.757 120.977 920.588 180.712 L 919.008 619 L 913.081 619 C 912.324 607.527 912.666 594.134 912.387 582.506 C 911.472 544.368 912.451 506.166 912.586 467.994 L 913.267 160.065 L 913.378 61.2727 C 913.401 41.6625 913.899 19.4342 912.857 0 z"/>
<path transform="translate(0,0)" fill="rgb(253,253,253)" d="M 921.079 0 L 1202.87 0 C 1208.42 3.18001 1214.39 5.81655 1220.3 8.22124 C 1258.04 23.5639 1283.32 61.4509 1294.13 99.5141 C 1301.44 125.272 1300.26 154.01 1300.22 180.669 L 1300.22 245.143 L 1300.77 482.62 C 1300.64 526.051 1298.84 575.945 1300.57 619 L 919.008 619 L 920.588 180.712 C 920.757 120.977 919.874 59.5924 921.079 0 z"/>
<path transform="translate(0,0)" fill="rgb(0,0,0)" d="M 1202.87 0 L 1315.12 0 L 1692.93 0 L 1705.94 0 L 1450.82 404.554 L 1362.31 543.199 C 1346.18 568.386 1329.15 593.163 1314.06 619 L 1300.57 619 C 1298.84 575.945 1300.64 526.051 1300.77 482.62 L 1300.22 245.143 L 1300.22 180.669 C 1300.26 154.01 1301.44 125.272 1294.13 99.5141 C 1283.32 61.4509 1258.04 23.5639 1220.3 8.22124 C 1214.39 5.81655 1208.42 3.18001 1202.87 0 z"/>
<path transform="translate(0,0)" fill="rgb(253,253,253)" d="M 1315.12 0 L 1692.93 0 C 1686.21 15.5233 1673.8 33.898 1664.55 48.7288 C 1646.43 77.8457 1628 106.777 1609.28 135.518 C 1565.15 204.464 1521.82 276.138 1476.78 344.352 C 1470.22 334.049 1457.92 306.236 1452.4 294.451 C 1432.02 250.921 1413.45 206.829 1393.06 163.197 L 1336.19 43.397 C 1330.2 30.7116 1319.33 12.0089 1315.12 0 z"/>
<path transform="translate(0,0)" fill="rgb(253,253,253)" d="M 2048 1.3475 L 2048 616.858 L 2048 619 L 1667 619 L 1656.09 619 C 1678.7 581.733 1705.18 544.263 1728.57 507.187 L 1913.97 213.53 L 1996.28 83.2498 C 2011.92 58.141 2031.31 25.3804 2048 1.3475 z"/>
<path transform="translate(0,0)" fill="rgb(0,0,0)" d="M 2048 1.3475 L 2048 616.858 C 2039.98 602.088 2031.83 583.05 2024.73 567.505 L 1977.42 462.494 L 1916.88 333.124 C 1908.18 314.444 1896.98 292.102 1889.26 273.325 C 1868.9 300.882 1849.04 334.097 1830.39 363.378 L 1715.63 544.698 C 1700.16 568.674 1684.09 596.568 1667 619 L 1656.09 619 C 1678.7 581.733 1705.18 544.263 1728.57 507.187 L 1913.97 213.53 L 1996.28 83.2498 C 2011.92 58.141 2031.31 25.3804 2048 1.3475 z"/>
</svg>