<?xml version="1.0" encoding="utf-8"?>
<!-- Generator: Adobe Illustrator 23.0.4, SVG Export Plug-In . SVG Version: 6.00 Build 0)  -->
<svg version="1.1" id="Camada_1" xmlns="http://www.w3.org/2000/svg" xmlns:xlink="http://www.w3.org/1999/xlink" x="0px" y="0px"
	 viewBox="0 0 386 270" style="enable-background:new 0 0 386 270;" xml:space="preserve">
<style type="text/css">
	.st0{fill:#FFFFFF;}
</style>
<path class="st0" d="M247.85,101.1c-4.96-1.67-9.32-1.6-14.37-3.08c-6.68-1.96-14.64-4.28-22.58-4.62v-0.51
	c7.91-3.74,16.84-7.27,26.17-9.75c9.05-2.4,23.39,4.55,29.25,0.51h8.21v-1.03c-1.27-0.6-6.89-2.29-7.7-3.08V78
	c-1.56-1.57-6.06-2.88-8.21-3.59c-17.93-5.97-40.91,0.14-53.88,5.65c-5,2.12-17.22,6.23-14.88,13.34c-2-0.75-2.08-2.5-3.59-3.59
	c-1.14-0.82-2.4-0.73-3.59-1.54c-1.24-0.84-2.32-2.76-3.59-3.59c-1.95-1.27-4.93-1.13-6.67-2.57c-5.66-0.13-12.5-0.67-12.83,3.08
	c-3.42-0.81-6.84-2.21-10.78-2.57c0.34-12.66,0.68-25.32,1.03-37.98c-1.24-5.18,0.25-11.79-1.03-17.45
	c-0.07-0.33-0.8-1.45-0.51-2.57c1.09-4.18,3.32-8.15,3.08-12.83c-0.56-0.46-0.06,0.05-0.51-0.51c-1.93,0.32-1.81,0.77-3.08,1.54
	v1.03c-1.28-1.59-2.52-5.78-3.08-7.7c-0.57-1.95,0.39-4.29-0.51-5.65c-0.56-0.48-0.07-0.19-1.03-0.51
	c-0.86,2.04-0.65,4.13-1.54,6.67c-0.35,1-1.7,1.73-2.05,2.57c-0.77,1.81-1.71,14.31-0.51,15.91v6.67c-1.03,0.86-2.05,1.71-3.08,2.57
	c-3.2,4.33-6.42,8.64-10.26,12.32c-1.55,1.48-3.85,2.38-5.13,4.11c-10.02,13.48-19.03,28.26-30.79,40.03
	c-6.16,5.64-12.32,11.29-18.47,16.94c-0.68,2.22-1.37,4.45-2.05,6.67h-1.03c-1.95-3.86-5.87-7.01-8.21-10.26
	c-3.11-4.32-5.1-8.98-8.21-13.34c-0.68-0.51-1.37-1.03-2.05-1.54c-0.34-1.03-0.68-2.05-1.03-3.08c-2.51-4.04-5.7-8.26-8.21-12.32
	c-0.34-1.03-0.68-2.05-1.03-3.08c-0.55-0.88-2.01-1.73-2.57-2.57c-0.34-1.03-0.68-2.05-1.03-3.08c-1.24-2-3.53-4.13-4.62-6.16
	c-1.57-2.92-1.89-5.49-3.59-8.21c-1.93-3.07-4.74-6.11-6.67-9.24c-1.59-2.58-1.78-5.28-3.08-8.21c-1-2.26-3.12-4.47-4.11-6.67
	c-1.56-3.47-2.16-6.65-4.11-9.75c-0.94-1.5-4.57-4.98-5.13-6.16C3.83,9.13,4.2,4.46,4.1,3.08H3.07C2.9,3.93,2.73,4.79,2.56,5.64
	C2.22,5.82,1.88,5.99,1.53,6.16c-0.17,8.89-0.34,17.79-0.51,26.69c0.94,3.98,2.26,18.42,1.03,23.61C0.4,63.4,1.02,72.73,1.02,81.08
	v8.72c-1.36,5.75-1.36,26.58,0,32.33c1.25,5.3-0.17,12.52,1.03,17.45v4.62c1.49,6.09,1.59,14.79,3.08,21.04
	c1.12,4.69-0.64,9.46,2.05,12.32v0.51H8.2c3.03-12.28,4.55-31.07,1.54-43.62c-1.42-5.9,0.73-13.7-0.51-18.99
	c-1.04-4.42-0.33-12.79,0.51-16.42c-0.17-3.08-0.34-6.16-0.51-9.24c1.8-7.71,0.09-19.66-1.54-26.17v-6.16
	c-1.13-4.74-0.88-11.46-2.05-16.42c-0.62-2.61,0.76-6.38-0.51-8.21v-7.7h0.51c1.17,4.99,4.31,8.61,6.16,12.83
	c1.12,2.56,1.19,4.93,2.57,7.18c0.25,0.4,1.31,1.04,1.54,1.54c8.58,18.64,18.04,35,29.25,50.81c1.15,1.62,1.43,3.5,2.57,5.13
	c0.94,1.34,2.7,2.7,3.59,4.11c0.78,1.23,0.7,2.45,1.54,3.59c0.45,0.61,1.54,0.5,2.05,1.03c1.22,1.26,1.51,3.17,2.57,4.62
	c1.2,1.03,2.39,2.05,3.59,3.08c0.97,1.31,1.39,2.55,2.57,3.59c1.34,1.19,3.05,1.59,4.11,3.08c4.35-0.11,2.79-1.53,5.13-1.54
	c-0.13-1.36-0.34-3.7-1.03-4.62c0.74-3.92,5.49-5.18,8.21-7.18c1.03-1.2,2.05-2.4,3.08-3.59c4.05-3.01,7.77-6.23,11.29-9.75
	c10.96-10.96,19.4-23.22,28.22-36.44c1.15-1.72,3.42-2.99,4.62-4.62c2.03-2.76,3.1-5.86,5.13-8.72c1.91-2.69,4.88-4.81,6.67-7.7
	h0.51c0.03,5.74,1.96,14.92,0.51,21.04c-1.35,5.69-1.04,12.75-1.03,19.5c-21.43,1.18-38.47,17.35-44.65,33.87
	c-4.39,11.74-1.14,34.1,3.59,42.59c3.08,5.53,10.26,9.09,16.42,11.8c8.27,3.65,15.81,8.18,27.71,8.72
	c0.05,14.29,2.85,26.42,3.08,39.52c0.14,7.81-1.23,21.06,2.05,25.66c0.06,3.67,1.21,3.59,2.57,5.65c3.42-0.23,2.57-0.62,5.64-0.51
	c0.4-6.59,1.81-18.58,0-26.17v-7.7c-2.59-10.8-3.14-24.31-3.08-37.46c10.23-1.33,26.8-11.4,32.84-17.45
	c3.12-3.12,6.24-8.98,9.75-11.29c0.56-0.48,0.07-0.19,1.03-0.51c3.46,3.85,11.49,5.64,16.93,7.7c24.31,9.18,66.07,6.11,72.36-17.45
	c2.13-8-4.98-18.29-8.21-21.55C269.53,109.87,259.23,104.94,247.85,101.1z M113.4,153.44c-1.03-3.42-2.05-6.84-3.08-10.26v-4.62
	c-3.92-16.27,6.62-30.86,14.88-36.95c3.9-2.87,7.96-7.45,13.86-8.21c1.03,25.14,2.05,50.29,3.08,75.44
	C129.21,168.95,117.37,162.1,113.4,153.44z M183.71,127.78c-0.17,3.08-0.34,6.16-0.51,9.24c-2.89,11.46-18.41,28.92-30.79,30.28
	c-0.57-5.09-0.45-12.42-1.54-16.94c-1.07-4.44,0.4-10.54-0.51-14.37v-15.91c-1.86-7.83-1.09-19.71-1.03-27.71
	c3.42,0.13,17.56,1.8,19.5,0.51c6.53-0.03,4.28,2.19,7.18,5.13c0.85,0.86,2.36,1.05,3.08,2.05
	C183.71,106.49,186.11,117.44,183.71,127.78z M262.22,146.26c-2.08,1.49-4.37,3.23-7.18,4.11c-10.53,3.28-29.9,0.44-37.97-2.57
	c-3.13-1.16-6.12-1.48-8.21-3.59c-1.76-2.02-1.25-6.02-1.03-8.72c1.71-1.63,2.7-4.24,4.62-5.65c6.42-4.71,16.06-7.37,27.2-7.18
	v-1.03c-7.37-2.78-23.37-1.22-30.79,1.03c-3,0.91-5.68,0.34-7.7,2.05h-0.51c-0.08-11.3-1.81-17.34-5.13-24.63
	c2.71,0.59,5.8,1.85,8.21,2.57c4.62,0.51,9.24,1.03,13.86,1.54c7.39,1.85,15.25,3.02,22.07,5.13c6.43,1.99,12.9,2.32,17.96,5.65
	c5.01,3.3,9.57,9.9,11.29,16.42C270.9,138.96,265.74,143.74,262.22,146.26z"/>
<path class="st0" d="M386.41,104.69v-1.54c-7.01,0.17-14.03,0.34-21.04,0.51c-0.18-3.57-1.3-5.88-2.05-8.72
	c-1.7-6.38-1.43-13.62-3.08-19.5c-0.17-2.39-0.34-4.79-0.51-7.18c-3.37-12.48-4.77-27.91-8.21-40.03v-3.08
	c-1.15-4.23-1.96-10.31-3.08-14.37c-0.8-2.91,0.49-7.47-1.03-9.75c-0.46-0.56,0.05-0.06-0.51-0.51c-0.54,1.16-1.65,2.55-2.05,3.59
	c-0.17,1.37-0.34,2.74-0.51,4.11c-0.36,0.81-1.62,0.91-2.05,1.54c-0.51,1.54-1.03,3.08-1.54,4.62c-2.08,7.64,2.97,22.25,4.62,27.2
	c0.17,2.05,0.34,4.11,0.51,6.16c0.88,2.91,1.76,7.72,2.57,10.78v4.11c1.55,5.82,2.54,13.62,4.11,19.5c0.17,2.91,0.34,5.82,0.51,8.72
	c1.02,3.85,2.37,9.07,2.57,13.34c-6.33,0.02-12.59,0.25-17.96,1.54c-5.07,1.21-10.74,0.43-15.4,1.54c-3.59,0.86-8.64-0.8-11.29,1.03
	c-2.85,0.06-8.96,0.82-10.78-0.51c-1.67-2.33-0.71-7.9-1.54-11.29c-1.01-4.13-1.53-9.05-2.57-13.34
	c-1.27-5.26,0.19-12.39-1.03-17.45c-0.89-3.68,0.86-9.73-0.51-11.8c-0.46-0.56,0.05-0.06-0.51-0.51c-0.92,1.94-2.32,4.23-3.08,6.16
	c-0.17,1.03-0.34,2.05-0.51,3.08c-0.36,0.44-1.61,0.5-2.05,1.54c-3.37,8-1.74,22.71,0.51,30.79c1.03,3.71-0.46,8.63,1.54,11.29
	c0.13,5.71-6.23,6.01-10.78,6.67c1.43,3.07,3.9,0.75,7.18,2.05c0.8,0.32,0.93,1.68,1.54,2.05c1.11,0.67,2.2,0.32,3.08,1.03
	c2.17,2.88,0.54,8.2,1.54,12.32c1.97,8.12,1.1,18.18,3.08,26.17v5.65c3.07,12.44,1.41,27.97,4.62,40.54
	c2.76,10.82,4.96,22.49,7.7,32.84c0.34,4.28,0.68,8.55,1.03,12.83v5.65c0.64,2.22,1.93,5.29,2.57,7.7v5.13h1.03
	c0.68,0.87,0.77,1.25,1.03,2.57c0.51-0.17,1.03-0.34,1.54-0.51c0.22,0.44-0.48,1.33,0.51,1.03c1.51-0.45,1.86-1.05,3.59-0.51
	c2.84-7.13,0.59-12.46-1.03-18.99c-0.17-5.13-0.34-10.26-0.51-15.4c-1.07-4.25-2.37-9.15-3.59-13.34
	c-2.74-9.39-3.12-19.83-5.64-29.25v-6.16c-0.71-2.91-0.86-7.51-1.54-10.26v-6.67c-1.63-6.61-1.44-14.91-3.08-21.55v-6.16
	c-1.66-6.74-2.76-16.89-3.08-24.12c8.84-0.04,17.99-0.21,25.66-2.05c5.07-1.22,10.75-0.42,15.4-1.54
	c4.62-1.11,10.98,0.83,14.37-1.54c2.28,1.19,0.78,2.87,1.54,5.65c1.45,5.31,1.56,12.08,3.08,17.96c3.7,14.31,5.45,30.38,9.75,44.13
	c1.68,5.37,1.21,15.04,4.11,18.99c0.25,2.46,1.59,3.03,3.08,4.11c0,0,0.06,1.08,0.51,0.51v-1.03c1.04,0.45-0.14,0.44,0.51,1.03
	c1.38-0.69,2.07-1.82,3.59-1.03h1.03c-0.81-2.51,1.26-3.76,0.51-6.67l-1.03-1.54c-0.34-2.91-0.68-5.82-1.03-8.72
	c-4.81-15.46-6.96-33.43-11.29-49.27c-1.87-6.84-1.76-14.56-3.59-21.04c-0.41-1.44,0.1-2.68-0.51-3.59
	C367.28,107.3,381.11,104.8,386.41,104.69z"/>
</svg>
